REM DIRINDEX 1\5,1\2\6,1\2\7,1\3\8,1\3\9,1\3\10,1\3\11,1\4\12,1\4\13,1\4\14
REM DIRNAME cjc042,folder01,folder02,folder03,folder04,folder05,folder06,folder07,folder08,folder09,folder10,folder11,folder12,folder13
TITLE ""
FILE "4Q_j_657-664.mp3" MP3
  TRACK 01 AUDIO
    TITLE "8:cjc042_0883"
    INDEX 01 00:00:00
  TRACK 02 AUDIO
    TITLE "0:"
    INDEX 01 00:01:36
  TRACK 03 AUDIO
    TITLE "9:cjc042_0884"
    INDEX 01 00:02:10
  TRACK 04 AUDIO
    TITLE "0:"
    INDEX 01 00:03:21
  TRACK 05 AUDIO
    TITLE "10:cjc042_0885"
    INDEX 01 00:03:66
  TRACK 06 AUDIO
    TITLE "0:"
    INDEX 01 00:08:38
  TRACK 07 AUDIO
    TITLE "11:cjc042_0886"
    INDEX 01 00:09:12
  TRACK 08 AUDIO
    TITLE "0:"
    INDEX 01 00:14:11
  TRACK 09 AUDIO
    TITLE "8:cjc042_0887"
    INDEX 01 00:14:64
  TRACK 10 AUDIO
    TITLE "0:"
    INDEX 01 00:17:00
  TRACK 11 AUDIO
    TITLE "9:cjc042_0888"
    INDEX 01 00:17:55
  TRACK 12 AUDIO
    TITLE "0:"
    INDEX 01 00:20:65
  TRACK 13 AUDIO
    TITLE "10:cjc042_0889"
    INDEX 01 00:21:43
  TRACK 14 AUDIO
    TITLE "0:"
    INDEX 01 00:25:68
  TRACK 15 AUDIO
    TITLE "11:cjc042_0890"
    INDEX 01 00:26:50
  TRACK 16 AUDIO
    TITLE "0:"
    INDEX 01 00:30:26
  TRACK 17 AUDIO
    TITLE "8:cjc042_0891"
    INDEX 01 00:31:02
  TRACK 18 AUDIO
    TITLE "0:"
    INDEX 01 00:32:29
  TRACK 19 AUDIO
    TITLE "9:cjc042_0892"
    INDEX 01 00:33:09
  TRACK 20 AUDIO
    TITLE "0:"
    INDEX 01 00:35:63
  TRACK 21 AUDIO
    TITLE "10:cjc042_0893"
    INDEX 01 00:36:42
  TRACK 22 AUDIO
    TITLE "0:"
    INDEX 01 00:39:72
  TRACK 23 AUDIO
    TITLE "11:cjc042_0894"
    INDEX 01 00:40:58
  TRACK 24 AUDIO
    TITLE "0:"
    INDEX 01 00:43:39
  TRACK 25 AUDIO
    TITLE "8:cjc042_0895"
    INDEX 01 00:44:16
  TRACK 26 AUDIO
    TITLE "0:"
    INDEX 01 00:45:53
  TRACK 27 AUDIO
    TITLE "9:cjc042_0896"
    INDEX 01 00:46:31
  TRACK 28 AUDIO
    TITLE "0:"
    INDEX 01 00:49:51
  TRACK 29 AUDIO
    TITLE "10:cjc042_0897"
    INDEX 01 00:50:31
  TRACK 30 AUDIO
    TITLE "0:"
    INDEX 01 00:52:65
  TRACK 31 AUDIO
    TITLE "11:cjc042_0898"
    INDEX 01 00:53:41
  TRACK 32 AUDIO
    TITLE "0:"
    INDEX 01 00:56:20
  TRACK 33 AUDIO
    TITLE "8:cjc042_0899"
    INDEX 01 00:56:67
  TRACK 34 AUDIO
    TITLE "0:"
    INDEX 01 00:58:62
  TRACK 35 AUDIO
    TITLE "9:cjc042_0900"
    INDEX 01 00:59:38
  TRACK 36 AUDIO
    TITLE "0:"
    INDEX 01 01:02:26
  TRACK 37 AUDIO
    TITLE "10:cjc042_0901"
    INDEX 01 01:02:71
  TRACK 38 AUDIO
    TITLE "0:"
    INDEX 01 01:07:17
  TRACK 39 AUDIO
    TITLE "11:cjc042_0902"
    INDEX 01 01:07:72
  TRACK 40 AUDIO
    TITLE "0:"
    INDEX 01 01:12:30
  TRACK 41 AUDIO
    TITLE "8:cjc042_0903"
    INDEX 01 01:13:04
  TRACK 42 AUDIO
    TITLE "0:"
    INDEX 01 01:14:33
  TRACK 43 AUDIO
    TITLE "9:cjc042_0904"
    INDEX 01 01:15:15
  TRACK 44 AUDIO
    TITLE "0:"
    INDEX 01 01:20:20
  TRACK 45 AUDIO
    TITLE "10:cjc042_0905"
    INDEX 01 01:20:71
  TRACK 46 AUDIO
    TITLE "0:"
    INDEX 01 01:24:08
  TRACK 47 AUDIO
    TITLE "11:cjc042_0906"
    INDEX 01 01:24:59
  TRACK 48 AUDIO
    TITLE "0:"
    INDEX 01 01:27:24
  TRACK 49 AUDIO
    TITLE "8:cjc042_0907"
    INDEX 01 01:28:02
  TRACK 50 AUDIO
    TITLE "0:"
    INDEX 01 01:29:45
  TRACK 51 AUDIO
    TITLE "9:cjc042_0908"
    INDEX 01 01:30:17
  TRACK 52 AUDIO
    TITLE "0:"
    INDEX 01 01:32:53
  TRACK 53 AUDIO
    TITLE "10:cjc042_0909"
    INDEX 01 01:33:31
  TRACK 54 AUDIO
    TITLE "0:"
    INDEX 01 01:38:32
  TRACK 55 AUDIO
    TITLE "11:cjc042_0910"
    INDEX 01 01:39:04
  TRACK 56 AUDIO
    TITLE "0:"
    INDEX 01 01:43:66
  TRACK 57 AUDIO
    TITLE "8:cjc042_0911"
    INDEX 01 01:44:40
  TRACK 58 AUDIO
    TITLE "0:"
    INDEX 01 01:46:57
  TRACK 59 AUDIO
    TITLE "9:cjc042_0912"
    INDEX 01 01:47:33
  TRACK 60 AUDIO
    TITLE "0:"
    INDEX 01 01:49:69
  TRACK 61 AUDIO
    TITLE "10:cjc042_0913"
    INDEX 01 01:50:41
  TRACK 62 AUDIO
    TITLE "0:"
    INDEX 01 01:54:29
  TRACK 63 AUDIO
    TITLE "11:cjc042_0914"
    INDEX 01 01:55:07
  TRACK 64 AUDIO
    TITLE "0:"
    INDEX 01 01:58:50
